<?xml version="1.0" encoding="UTF-8"?>
<svg version="1.1" xmlns="http://www.w3.org/2000/svg" width="512" height="512">
<path d="M0 0 C168.96 0 337.92 0 512 0 C512 168.96 512 337.92 512 512 C343.04 512 174.08 512 0 512 C0 343.04 0 174.08 0 0 Z " fill="#050202" transform="translate(0,0)"/>
<path d="M0 0 C0.21503174 0.67764404 0.43006348 1.35528809 0.65161133 2.0534668 C10.55674555 32.88128023 23.38646021 52.93763686 46.40185547 75.33007812 C52.41073131 81.21511818 57.79349594 87.3979789 63 94 C63.70165283 94.8667334 63.70165283 94.8667334 64.41748047 95.75097656 C76.31887805 110.46966206 83.78912778 125.86766462 84.66015625 144.9453125 C85.12125851 149.0899328 86.16946472 150.99791712 89 154 C92.65972967 155.82986484 96.18978277 155.23740174 100 154 C105.941383 149.73033693 109.33786336 142.99375913 112.75 136.6875 C113.11480469 136.01332031 113.47960937 135.33914062 113.85546875 134.64453125 C119.08323866 124.49538088 121.62351613 114.06394516 123.1875 102.8125 C123.4340332 101.14670898 123.4340332 101.14670898 123.68554688 99.44726562 C124.58211885 93.30919594 125.3550482 87.16938743 126 81 C131.00431821 85.02711609 135.23673471 89.30308716 139.25 94.3125 C140.08797119 95.35519043 140.08797119 95.35519043 140.94287109 96.41894531 C146.87333155 103.92581469 152.08537665 111.79886701 157 120 C157.68425049 121.13598633 157.68425049 121.13598633 158.38232422 122.29492188 C179.28617213 157.44440922 190.40637293 198.35557336 190.0625 239.25 C190.05798828 240.29285156 190.05347656 241.33570313 190.04882812 242.41015625 C190.03722256 244.94016854 190.0209007 247.47005042 190 250 C186.63401549 248.39545043 184.18504789 246.5290976 181.375 244.0625 C163.62209556 229.40218929 143.32921417 220.9050155 121 216 C119.71452271 215.71636597 119.71452271 215.71636597 118.40307617 215.42700195 C111.5712271 214.04424206 105.02071031 213.72053391 98.0625 213.8125 C97.0012793 213.8225708 95.94005859 213.8326416 94.84667969 213.84301758 C91.89726252 213.8800329 88.94893844 213.93609279 86 214 C84.83855469 214.01804688 83.67710937 214.03609375 82.48046875 214.0546875 C52.03237291 215.53571076 23.65321909 231.56365604 2 252 C1.25105469 252.68449219 0.50210938 253.36898437 -0.26953125 254.07421875 C-21.2923677 273.99252789 -36.78478079 306.59263175 -38.12231445 335.65795898 C-39.14760512 373.84771311 -29.8268573 410.56382501 -2.96337891 438.92797852 C-1.64806326 440.29095052 -0.32424603 441.645703 1 443 C1.67675781 443.72703125 2.35351562 444.4540625 3.05078125 445.203125 C8.471338 450.90424887 14.63254451 455.41543205 21 460 C14.43577879 463.63379826 6.58803424 463.16006599 -0.75 463.203125 C-1.55743149 463.21013931 -2.36486298 463.21715363 -3.19676208 463.22438049 C-5.79789873 463.24181708 -8.39880699 463.24823616 -11 463.25 C-11.89260529 463.25067474 -12.78521057 463.25134949 -13.7048645 463.25204468 C-28.33117746 463.23451833 -42.56091433 462.48057339 -57 460 C-58.01481445 459.83371094 -59.02962891 459.66742188 -60.07519531 459.49609375 C-87.30639752 454.93927652 -115.374112 446.35060319 -138 430 C-139.05316406 429.24074219 -140.10632813 428.48148437 -141.19140625 427.69921875 C-166.30898811 409.17883771 -182.10317739 383.47699225 -187.45703125 352.87890625 C-190.45129159 331.48825508 -190.27270565 309.19480879 -186 288 C-185.85546387 287.27683594 -185.71092773 286.55367188 -185.56201172 285.80859375 C-183.47881201 275.78708819 -180.18196057 266.32729189 -176 257 C-175.20722656 255.22689453 -175.20722656 255.22689453 -174.3984375 253.41796875 C-169.11757507 242.12195826 -162.36518034 231.66835702 -155.78515625 221.1015625 C-151.67333691 214.49568881 -147.71339174 207.83999752 -144 201 C-143.4121875 199.94167969 -142.824375 198.88335937 -142.21875 197.79296875 C-131.82776734 178.21872729 -126.43982402 155.93246058 -124 134 C-109.35302557 147.1688394 -100.46483172 172.88685103 -98.7265625 192.0078125 C-98.46197571 199.96576911 -99.67949191 207.74195699 -100.93212891 215.57836914 C-102.41150719 223.98803354 -102.41150719 223.98803354 -101.25 232.3125 C-99.65294576 234.46852322 -98.55040714 235.14986429 -96 236 C-92.11566819 236.32369432 -89.22794238 236.30567313 -86 234 C-84.15811765 230.96960289 -83.66994013 228.39300332 -83.3515625 224.88671875 C-81.79146589 211.00129569 -79.08254298 202.94828476 -69.59033203 192.81152344 C-42.30068162 161.7262907 -25.6418021 113.88240877 -24.70996094 73.02807617 C-24.40920716 60.31777193 -19.96863962 0 0 0 Z " fill="#FC755A" transform="translate(245,29)"/>
<path d="M0 0 C81.51 0 163.02 0 247 0 C244.525 1.98 244.525 1.98 242 4 C224.02376727 19.37517011 212.62589501 37.483686 206.1875 60.1875 C205.9925293 60.87489258 205.79755859 61.56228516 205.59667969 62.27050781 C202.6758731 73.26860668 201.7588914 84.22268547 201.5625 95.5625 C200.58945154 128.62873276 191.03349865 157.76499549 175.3125 186.75 C174.87317139 187.56001465 174.43384277 188.3700293 173.98120117 189.20458984 C171.04661309 194.47005423 167.73616195 199.27125544 164 204 C162.0538363 201.08075445 161.02141881 198.34804293 159.89575195 195.04833984 C151.55283479 170.78470206 137.2987259 145.35990491 118 128 C115.77711076 127.02717339 115.77711076 127.02717339 113.5 126.875 C112.7678125 126.76929687 112.035625 126.66359375 111.28125 126.5546875 C107.56857317 127.27942236 106.22676603 129.01296897 104 132 C103.55892439 134.99323032 103.40256942 137.51102628 103.4375 140.5 C102.59732335 181.03470426 90.20430806 213.45412122 68.6640625 247.24609375 C49.7925527 276.93879459 37.56222918 308.49306482 37 344 C36.98485352 344.93811523 36.96970703 345.87623047 36.95410156 346.84277344 C36.38932416 389.9449317 45.91646469 426.00818073 76 458 C76.78890625 458.88558594 76.78890625 458.88558594 77.59375 459.7890625 C108.4454834 493.00189794 161.57180909 506.84225931 204.8125 510.125 C206.44155273 510.25455078 206.44155273 510.25455078 208.10351562 510.38671875 C210.7353735 510.59541233 213.36748474 510.79980138 216 511 C216 511.33 216 511.66 216 512 C144.72 512 73.44 512 0 512 C0 343.04 0 174.08 0 0 Z " fill="#FEFEFE" transform="translate(0,0)"/>
<path d="M0 0 C85.47 0 170.94 0 259 0 C259 168.96 259 337.92 259 512 C206.86 512 154.72 512 101 512 C101 511.67 101 511.34 101 511 C101.54188965 510.91024902 102.0837793 510.82049805 102.64208984 510.72802734 C133.75353202 505.46744868 160.24773736 494.21294975 183 472 C184.07314453 471.01966797 184.07314453 471.01966797 185.16796875 470.01953125 C209.3402 447.39123493 221.11240539 412.84549337 222.23828125 380.4765625 C222.48825114 367.16481737 221.45099072 354.87103276 218 342 C217.81808105 341.32146973 217.63616211 340.64293945 217.44873047 339.94384766 C214.33836885 328.81158826 209.47526642 317.50424072 202.89501953 307.94067383 C200.20214468 303.21054534 200.55028233 298.60485456 200.71484375 293.29296875 C200.72897812 292.26311859 200.74311249 291.23326843 200.75767517 290.17221069 C200.7878081 287.97757182 200.825888 285.78302992 200.87127686 283.58865356 C200.98212936 277.89538107 201.01276667 272.20203291 201.03515625 266.5078125 C201.03954712 265.40025101 201.04393799 264.29268951 201.04846191 263.15156555 C201.05875576 251.25651731 200.17949237 239.7081625 198 228 C197.80132324 226.91928223 197.60264648 225.83856445 197.39794922 224.72509766 C193.05221678 201.89616762 186.2051975 179.89546836 176 159 C175.63712891 158.24976563 175.27425781 157.49953125 174.90039062 156.7265625 C162.16539895 130.68668279 138.34876273 88.96423874 110 77 C106.3404965 76.53282934 104.55862723 76.67643817 101.34619141 78.53710938 C98.2257344 81.81277746 98.3186179 84.48492111 98.3984375 88.78125 C98.3916095 89.54347366 98.38478149 90.30569733 98.37774658 91.09101868 C98.36431497 92.71904405 98.36120167 94.34718162 98.36749268 95.97525024 C98.38001372 100.18613961 98.30773125 104.39532758 98.234375 108.60546875 C98.22117218 109.42794601 98.20796936 110.25042328 98.19436646 111.0978241 C98.0698266 117.40042204 97.61206535 123.58048889 96.625 129.8125 C96.51075684 130.555 96.39651367 131.2975 96.27880859 132.0625 C95.41657004 136.98430078 93.85043425 141.38425199 92 146 C89.59960774 143.10778426 87.99584691 140.06329213 86.40063477 136.67041016 C80.17855954 123.45658348 71.94031219 112.65707094 62 102 C60.95420763 100.77434162 59.91241596 99.54525637 58.875 98.3125 C55.2843091 94.17393373 51.3881001 90.35561295 47.5 86.5 C42.45705674 81.49438015 37.50570753 76.50297079 33 71 C32.44441406 70.36835937 31.88882812 69.73671875 31.31640625 69.0859375 C17.30004326 52.41614277 10.69650738 28.00860172 5.78442383 7.18286133 C4.90822142 4.74460246 3.94252602 3.67608016 2 2 C1.34 1.34 0.68 0.68 0 0 Z " fill="#FEFEFE" transform="translate(253,0)"/>
<path d="M0 0 C18.44088125 14.73738017 31.02793818 32.40192528 39.8203125 54.25390625 C40.31337891 55.46820313 40.31337891 55.46820313 40.81640625 56.70703125 C41.61438948 58.87357638 42.24403355 61.01765398 42.8203125 63.25390625 C43.09746094 64.32769531 43.37460937 65.40148437 43.66015625 66.5078125 C47.5045572 83.78104258 47.28119933 102.12985679 42.8203125 119.25390625 C42.65402344 119.90230469 42.48773438 120.55070313 42.31640625 121.21875 C34.86137985 149.54785033 16.39849619 175.77618076 -8.95654297 190.84375 C-34.9195242 205.64059418 -66.74974138 212.90548808 -96.19873047 204.84033203 C-112.94767998 199.88211454 -128.89710371 192.807248 -142.1796875 181.25390625 C-142.98664063 180.56683594 -143.79359375 179.87976563 -144.625 179.171875 C-166.00284862 160.50711726 -177.24837888 137.68860283 -183.1796875 110.25390625 C-183.48712891 108.84238281 -183.48712891 108.84238281 -183.80078125 107.40234375 C-187.45277143 77.05694083 -179.69205354 47.27966626 -161.2734375 22.875 C-144.14968928 1.43836743 -122.87697155 -13.19312403 -96.1796875 -19.74609375 C-95.1071875 -20.04515625 -94.0346875 -20.34421875 -92.9296875 -20.65234375 C-61.49515089 -28.65925402 -25.54102122 -19.17395752 0 0 Z " fill="#FDCB7D" transform="translate(410.1796875,284.74609375)"/>
<path d="M0 0 C3.62763593 2.62424727 4.83514312 3.99254127 5.5625 8.4375 C4.2438854 16.7887258 -2.88937061 22.61327792 -9 28 C-9.66 28 -10.32 28 -11 28 C-11.495 29.485 -11.495 29.485 -12 31 C-13.58673096 32.56549072 -13.58673096 32.56549072 -15.59863281 34.22753906 C-19.75009448 37.75192938 -23.59847733 41.48515167 -27.421875 45.359375 C-28.08914612 46.03043274 -28.75641724 46.70149048 -29.44390869 47.3928833 C-31.54841889 49.5094774 -33.64961533 51.62931242 -35.75 53.75 C-38.5335556 56.5601925 -41.3204401 59.3670222 -44.109375 62.171875 C-44.74172058 62.81251892 -45.37406616 63.45316284 -46.02557373 64.11322021 C-46.91735321 65.00995453 -46.91735321 65.00995453 -47.82714844 65.92480469 C-48.34484802 66.44774109 -48.86254761 66.97067749 -49.39593506 67.50946045 C-51.16832787 69.1564147 -53.04317102 70.57959366 -55 72 C-54.18425003 72.00586624 -53.36850006 72.01173248 -52.5280304 72.01777649 C-44.8328387 72.07572821 -37.13796987 72.1478188 -29.4430666 72.23571491 C-25.48721168 72.28040455 -21.53145942 72.31966357 -17.57543945 72.34643555 C-13.75621242 72.37248289 -9.9373807 72.41289485 -6.11839867 72.46318626 C-4.66284294 72.47984542 -3.20721884 72.49136565 -1.75158119 72.49761391 C0.29062518 72.50726585 2.33182247 72.53533523 4.3737793 72.56762695 C5.53515915 72.57873001 6.696539 72.58983307 7.89311218 72.60127258 C12.17710241 73.15106532 14.79142903 74.79142903 17.8125 77.8125 C19.4456216 80.82088189 19.4742025 82.6128393 19 86 C16.05253188 91.02214228 12.32436063 95.05690985 8.3125 99.25 C7.05010292 100.58529653 5.78838352 101.92123407 4.52734375 103.2578125 C3.91874512 103.90137695 3.31014648 104.54494141 2.68310547 105.20800781 C0.54596986 107.48340314 -1.54520812 109.79715955 -3.625 112.125 C-6.98776435 115.88557751 -10.38837654 119.60791722 -13.8125 123.3125 C-14.31418701 123.85543701 -14.81587402 124.39837402 -15.33276367 124.95776367 C-17.97103459 127.81095817 -20.61313782 130.66055352 -23.2578125 133.5078125 C-24.05674927 134.36959106 -24.05674927 134.36959106 -24.87182617 135.2487793 C-25.88111058 136.33738373 -26.89159993 137.42487287 -27.90356445 138.51098633 C-31.05731886 141.91462988 -34.05514063 145.41379195 -37 149 C-35.91332031 148.83951172 -35.91332031 148.83951172 -34.8046875 148.67578125 C-24.79489301 147.43456673 -24.79489301 147.43456673 -20 151 C-18.23448615 153.32726825 -18.00326816 154.97852351 -17.5625 157.875 C-18.13831365 161.98795466 -19.89222322 164.37734623 -23 167 C-26.02405254 168.42805543 -29.13335796 169.20896006 -32.375 170 C-33.28459473 170.23928223 -34.19418945 170.47856445 -35.13134766 170.72509766 C-37.07223028 171.23352631 -39.015533 171.73279032 -40.9609375 172.22363281 C-44.06786641 173.01733734 -47.15880071 173.85815964 -50.25 174.7109375 C-52.29141587 175.2665473 -54.33307667 175.82125808 -56.375 176.375 C-57.80851807 176.76945312 -57.80851807 176.76945312 -59.27099609 177.171875 C-64.26278799 178.48955929 -68.79249775 179.53963754 -74 179 C-76.63016161 176.8272578 -78.47336894 175.05326212 -80 172 C-80.39460012 166.17299371 -79.25647245 161.28643802 -77.69921875 155.7421875 C-77.34365654 154.44306931 -77.34365654 154.44306931 -76.98091125 153.1177063 C-76.47998735 151.29618162 -75.97463199 149.47587041 -75.46508789 147.65673828 C-74.68887064 144.87990331 -73.93041096 142.09864691 -73.17382812 139.31640625 C-72.68334458 137.54137539 -72.1918425 135.76662559 -71.69921875 133.9921875 C-71.47409103 133.16500214 -71.24896332 132.33781677 -71.01701355 131.48556519 C-69.42088615 125.84214737 -68.07515241 121.38343494 -63 118 C-58.52119109 117.56656688 -56.11541327 117.41804525 -52.125 119.5 C-49.26107588 122.8693225 -48.96886673 125.70556367 -48 130 C-37.00294673 118.34535219 -37.00294673 118.34535219 -26.22290039 106.49072266 C-23.90289312 103.89119336 -21.57373724 101.30011705 -19.2421875 98.7109375 C-18.44409668 97.8245459 -17.64600586 96.9381543 -16.82373047 96.02490234 C-16.22189941 95.35668457 -15.62006836 94.6884668 -15 94 C-15.86586227 93.99857498 -16.73172455 93.99714996 -17.62382507 93.99568176 C-25.7899968 93.9778408 -33.95562722 93.93619511 -42.12153912 93.86790943 C-46.31962392 93.83364082 -50.51734488 93.80852973 -54.71557617 93.80444336 C-58.76836752 93.80016001 -62.82033814 93.77169554 -66.87287331 93.72656822 C-68.41774525 93.71359417 -69.96271543 93.70928526 -71.50763512 93.71384621 C-73.67485162 93.7187535 -75.83967041 93.69266161 -78.0065918 93.65942383 C-79.85525093 93.64943108 -79.85525093 93.64943108 -81.74125671 93.63923645 C-85.88216584 92.82695398 -87.35743557 91.21246941 -90 88 C-91.50889469 84.98221063 -91.50026276 83.37677363 -91 80 C-89.67247009 78.17762756 -89.67247009 78.17762756 -87.91772461 76.24633789 C-86.96142654 75.19194016 -86.96142654 75.19194016 -85.98580933 74.11624146 C-82.98302639 70.91622942 -79.92438138 67.78137007 -76.81640625 64.68359375 C-75.82760719 63.6933596 -75.82760719 63.6933596 -74.8188324 62.68312073 C-73.43603165 61.29964494 -72.05198924 59.91740917 -70.66674805 58.53637695 C-68.56769657 56.44268331 -66.4740406 54.34370126 -64.38085938 52.24414062 C-63.02636214 50.89030429 -61.67155469 49.53677825 -60.31640625 48.18359375 C-59.39415001 47.25830116 -59.39415001 47.25830116 -58.45326233 46.3143158 C-55.39938839 43.2765543 -52.29468048 40.35343761 -49.03173828 37.54052734 C-44.87247831 33.94320657 -41.02016953 30.09661871 -37.17578125 26.16796875 C-35.72098895 24.69568106 -34.2659023 23.22368417 -32.81054688 21.75195312 C-30.54934004 19.45967288 -28.2905767 17.16512982 -26.03686523 14.86547852 C-23.83989989 12.62622272 -21.6336253 10.39649201 -19.42578125 8.16796875 C-18.7548494 7.47841599 -18.08391754 6.78886322 -17.39265442 6.07841492 C-11.88846531 0.54425974 -8.04496459 -2.15490123 0 0 Z " fill="#050201" transform="translate(377,288)"/>
<path d="M0 0 C2.80915461 1.27688846 4.50106764 2.31099817 6.3125 4.8125 C8.32717782 11.22283852 5.98967337 15.8348161 3.3125 21.5625 C-7.00504047 44.72609851 -12.99619192 77.6076407 -4 102 C2.23605195 117.5395252 12.03479414 130.75402934 27.6875 137.75 C33.29823019 139.9655191 38.92106422 141.11065385 44.87109375 142.03125 C48.75989626 143.23527375 50.47367306 144.84209132 53 148 C53.84369794 150.76691 53.63068481 153.18748668 53 156 C51.20636089 158.8100346 49.98119065 160.50940468 47 162 C29.90163571 163.77114531 13.44712021 155.18409417 0.3671875 144.9375 C-15.79411773 131.0990735 -25.35497109 110.93296687 -28 90 C-29.47292674 61.84779886 -28.06932884 26.93137059 -11 3 C-7.17188087 0.26391485 -4.71974823 -0.58996853 0 0 Z " fill="#080101" transform="translate(105,286)"/>
<path d="M0 0 C3.70042516 2.62692298 6.80438359 5.79036772 10 9 C10.90234375 9.85464844 11.8046875 10.70929688 12.734375 11.58984375 C21.85451687 20.3621836 38.10330846 36.05157093 39.2890625 49.20703125 C38.94058983 52.5740307 38.07192895 54.33609135 36 57 C32.77432495 59.33583366 29.89785581 59.61142836 26 59 C20.23611531 55.25234614 16.46127626 49.86969747 12.6875 44.25 C11.65130413 42.73330493 10.61361166 41.21763093 9.57421875 39.703125 C8.90265747 38.70780762 8.90265747 38.70780762 8.2175293 37.69238281 C6.97040318 35.86303349 6.97040318 35.86303349 5 34 C3.32661503 38.93648565 1.73426874 43.87838843 0.25 48.875 C-6.30194181 70.07678923 -15.11706273 90.10957981 -26.375 109.25 C-26.86250732 110.08974365 -27.35001465 110.9294873 -27.85229492 111.79467773 C-30.37764163 115.96338698 -32.32802286 119.06490716 -37 121 C-41.26948503 121.53368563 -43.2418138 121.49446926 -46.875 119.125 C-49.39053585 116.60946415 -49.90134472 115.61348659 -50.46484375 112.109375 C-50.3649627 106.15339107 -46.51770969 101.20383495 -43.5625 96.25 C-42.26527144 93.99854278 -40.97232388 91.74461372 -39.68359375 89.48828125 C-39.05050293 88.38178223 -38.41741211 87.2752832 -37.76513672 86.13525391 C-24.85806598 63.20958275 -14.91471699 36.42441791 -14.37109375 9.8828125 C-13.94465348 6.57004492 -12.93803294 4.69410505 -11 2 C-7.5054404 -0.6209197 -4.22588418 -0.74975364 0 0 Z " fill="#070201" transform="translate(259,118)"/>
<path d="M0 0 C3.59822599 2.79617867 4.83079577 5.97074521 6.55859375 10.11328125 C6.89963135 10.90573242 7.24066895 11.69818359 7.59204102 12.51464844 C12.67228209 24.64190793 17.93629777 38.65407447 16.55859375 51.98828125 C15.29714263 54.95269138 14.33544943 56.42573058 11.74609375 58.30078125 C7.69797754 59.57304634 4.67872266 59.49743076 0.80859375 57.73828125 C-3.53654966 54.35872527 -3.78942781 50.37703657 -4.56640625 45.11328125 C-6.42651109 33.8482722 -10.33156539 22.20796296 -15.44140625 11.98828125 C-15.85345459 7.35273737 -15.31594771 4.68412027 -12.44140625 0.98828125 C-8.55991497 -1.82245381 -4.35491823 -1.80467811 0 0 Z " fill="#090202" transform="translate(392.44140625,175.01171875)"/>
<path d="M0 0 C4.99503071 0.4913145 6.31841769 1.88091769 9.8125 5.375 C11.29146861 8.33293723 11.2480582 10.07720224 10.8125 13.375 C9.23988206 16.27070609 7.46792226 18.41571381 4.8125 20.375 C1.69583414 21.28023043 0.16063332 20.95959471 -3.1875 20.375 C-5.9975346 18.58136089 -7.69690468 17.35619065 -9.1875 14.375 C-9.69448467 9.22065588 -9.69448467 9.22065588 -9.1875 6.375 C-6.75 3.4375 -6.75 3.4375 -4.1875 1.375 C-3.1875 0.375 -3.1875 0.375 0 0 Z " fill="#0D0303" transform="translate(195.1875,251.625)"/>
<path d="M0 0 C7.79762762 2.34928524 15.53927897 3.32692883 23.625 4.125 C23.625 4.455 23.625 4.785 23.625 5.125 C-0.795 5.125 -25.215 5.125 -50.375 5.125 C-50.375 4.795 -50.375 4.465 -50.375 4.125 C-49.72128418 4.04983154 -49.06756836 3.97466309 -48.39404297 3.8972168 C-31.6669391 1.99331042 -31.6669391 1.99331042 -15.1796875 -1.32421875 C-9.58959649 -2.42199428 -5.3763294 -1.74954187 0 0 Z " fill="#F2F2F2" transform="translate(306.375,506.875)"/>
<path d="M0 0 C23.76 0 47.52 0 72 0 C70.35 1.65 68.7 3.3 67 5 C67 4.01 67 3.02 67 2 C65.78517441 2.00666183 65.78517441 2.00666183 64.54580688 2.01345825 C56.92347403 2.05348751 49.30119194 2.08396015 41.67878151 2.10362434 C37.75976716 2.11407365 33.84083947 2.12825362 29.921875 2.15087891 C26.14176961 2.17256661 22.36174772 2.18455998 18.58158493 2.18975449 C17.13744161 2.19345759 15.693303 2.2006886 14.2491951 2.21146011 C12.23079106 2.22592017 10.21230348 2.22681645 8.19384766 2.22705078 C6.46843246 2.23371262 6.46843246 2.23371262 4.7081604 2.24050903 C2 2 2 2 0 0 Z " fill="#DAB680" transform="translate(291,381)"/>
<path d="M0 0 C4.75 1.875 4.75 1.875 7 3 C6.67 4.32 6.34 5.64 6 7 C-0.68393248 8.22521526 -7.30253416 8.14420676 -14.08203125 8.1328125 C-15.33255783 8.13376923 -16.58308441 8.13472595 -17.87150574 8.13571167 C-21.17672492 8.13656346 -24.4818965 8.13255722 -27.78710938 8.12695312 C-30.49234915 8.12434441 -33.19755581 8.12916437 -35.90279102 8.13394356 C-39.12920731 8.13841715 -42.35561394 8.13529038 -45.58203125 8.1328125 C-46.79655472 8.13483673 -48.01107819 8.13686096 -49.2624054 8.13894653 C-50.38084335 8.13579437 -51.49928131 8.13264221 -52.65161133 8.12939453 C-53.63865555 8.12859894 -54.62569977 8.12780334 -55.64265442 8.12698364 C-58 8 -58 8 -60 7 C-63.16395456 6.5637189 -66.32709179 6.18331073 -69.50195312 5.83789062 C-73.03844758 5.41184869 -74.97990975 5.0133935 -78 3 C-72.96163977 3.430242 -67.92912672 3.87793605 -62.90917969 4.48974609 C-51.95801626 5.79612596 -41.1619514 6.31539381 -30.13598633 6.26074219 C-27.53899359 6.24990188 -24.94267683 6.26078477 -22.34570312 6.2734375 C-13.37593076 6.27982645 -4.80427563 5.948369 4 4 C2.68 2.68 1.36 1.36 0 0 Z " fill="#1C0200" transform="translate(261,485)"/>
<path d="M0 0 C3.91457985 2.8395916 6.30820069 5.62527172 8.8125 9.75 C9.41707031 10.73484375 10.02164062 11.7196875 10.64453125 12.734375 C11.09183594 13.48203125 11.53914063 14.2296875 12 15 C10.109375 14.69140625 10.109375 14.69140625 8 14 C6.25 10.9375 6.25 10.9375 5 8 C2.56469493 8.34939366 2.56469493 8.34939366 0 10 C-1.64993735 12.88343685 -2.85322492 15.88640956 -4 19 C-5.27182008 16.45635984 -4.82067275 15.75536947 -4.00390625 13.0859375 C-3.66069336 11.94511719 -3.66069336 11.94511719 -3.31054688 10.78125 C-3.06369141 9.9871875 -2.81683594 9.193125 -2.5625 8.375 C-2.31951172 7.57320312 -2.07652344 6.77140625 -1.82617188 5.9453125 C-1.22395927 3.96155332 -0.61281311 1.98051018 0 0 Z " fill="#E47561" transform="translate(263,151)"/>
<path d="M0 0 C3.9753055 3.49095793 6.27725909 7.56074985 8.8125 12.125 C9.23208984 12.85332031 9.65167969 13.58164063 10.08398438 14.33203125 C11.12352598 16.18505269 12.07001348 18.08964394 13 20 C12.67 20.66 12.34 21.32 12 22 C10.99466333 20.37829621 9.99588093 18.75252763 9 17.125 C8.443125 16.22007812 7.88625 15.31515625 7.3125 14.3828125 C6 12 6 12 6 10 C5.34 10 4.68 10 4 10 C3.67 9.01 3.34 8.02 3 7 C2.34 6.67 1.68 6.34 1 6 C0.94392578 7.33804688 0.94392578 7.33804688 0.88671875 8.703125 C0.82097656 9.87359375 0.75523438 11.0440625 0.6875 12.25 C0.62949219 13.41015625 0.57148437 14.5703125 0.51171875 15.765625 C-0.01711803 19.10819638 -0.73772333 20.5497057 -3 23 C-2.2036893 15.30232994 -1.12178733 7.65647079 0 0 Z " fill="#D77360" transform="translate(121,163)"/>
<path d="M0 0 C10.28092972 0.55728404 10.28092972 0.55728404 15.125 2.375 C20.34343448 4.33072042 25.74831684 5.0809733 31.23681641 5.90966797 C36.7928745 6.7928745 36.7928745 6.7928745 39 9 C25.57441665 7.86983478 12.94825419 4.61829501 0 1 C0 0.67 0 0.34 0 0 Z " fill="#CF6E58" transform="translate(153,480)"/>
<path d="M0 0 C5.58513495 0.37865322 8.98482505 0.73387662 13 5 C13 5.99 13 6.98 13 8 C12.01 7.34 11.02 6.68 10 6 C5.95495862 5.61274278 5.95495862 5.61274278 2 6 C-0.37719693 7.87501931 -0.37719693 7.87501931 -2 10 C-2.66 10 -3.32 10 -4 10 C-3.67 7.69 -3.34 5.38 -3 3 C-2.01 3 -1.02 3 0 3 C0 2.01 0 1.02 0 0 Z " fill="#F2C781" transform="translate(312,401)"/>
<path d="M0 0 C1.95609885 3.91219769 2.24163531 5.25282176 2.1953125 9.421875 C2.18886719 10.44667969 2.18242187 11.47148437 2.17578125 12.52734375 C2.15902344 13.59082031 2.14226562 14.65429688 2.125 15.75 C2.11597656 16.82894531 2.10695313 17.90789062 2.09765625 19.01953125 C2.07411305 21.67991278 2.04122799 24.33984336 2 27 C-1.32635882 25.47427344 -2.95563002 24.06655496 -5 21 C-2.525 21.99 -2.525 21.99 0 23 C0 15.41 0 7.82 0 0 Z " fill="#C16756" transform="translate(433,252)"/>
<path d="M0 0 C-1.30936898 2.92090003 -2.75619462 4.75619462 -5 7 C-5.33 7.99 -5.66 8.98 -6 10 C-8.0625 11.1875 -8.0625 11.1875 -10 12 C-7.03 12.495 -7.03 12.495 -4 13 C-4 13.33 -4 13.66 -4 14 C-7.96 14.66 -11.92 15.32 -16 16 C-4.57142857 0 -4.57142857 0 0 0 Z " fill="#ECC383" transform="translate(355,422)"/>
<path d="M0 0 C1.65 0 3.3 0 5 0 C5.33 0.99 5.66 1.98 6 3 C20.19 3 34.38 3 49 3 C49 3.33 49 3.66 49 4 C42.66468985 4.10141463 36.32958898 4.17147114 29.99365234 4.21972656 C27.83829933 4.23984276 25.68300089 4.26713925 23.52783203 4.30175781 C20.42987605 4.35027486 17.33264154 4.37296873 14.234375 4.390625 C13.27070007 4.41127014 12.30702515 4.43191528 11.31414795 4.45318604 C4.59385211 4.45544041 4.59385211 4.45544041 1.36035156 1.97558594 C0.91143555 1.32364258 0.46251953 0.67169922 0 0 Z " fill="#160502" transform="translate(288,377)"/>
<path d="M0 0 C0.66 0 1.32 0 2 0 C2.67031719 1.9570868 3.33614683 3.91571113 4 5.875 C4.556875 7.51082031 4.556875 7.51082031 5.125 9.1796875 C6 12 6 12 6 14 C5.34 14 4.68 14 4 14 C3.87625 13.360625 3.7525 12.72125 3.625 12.0625 C3.41875 11.381875 3.2125 10.70125 3 10 C2.34 9.67 1.68 9.34 1 9 C0.67 9.66 0.34 10.32 0 11 C-0.33 10.01 -0.66 9.02 -1 8 C-3.01508358 7.26676204 -3.01508358 7.26676204 -5 7 C-4.21654285 5.82780457 -3.42297164 4.66236332 -2.625 3.5 C-2.18414062 2.8503125 -1.74328125 2.200625 -1.2890625 1.53125 C-0.65097656 0.77328125 -0.65097656 0.77328125 0 0 Z " fill="#DF725C" transform="translate(243,29)"/>
<path d="M0 0 C4.75 1.875 4.75 1.875 7 3 C6.67 4.32 6.34 5.64 6 7 C0.31160882 7.9802248 -5.17294333 8.11948801 -10.9375 8.0625 C-11.81212891 8.05798828 -12.68675781 8.05347656 -13.58789062 8.04882812 C-15.72529047 8.03714834 -17.86265463 8.01921689 -20 8 C-20 7.67 -20 7.34 -20 7 C-19.37955811 6.94465088 -18.75911621 6.88930176 -18.11987305 6.83227539 C-15.30873363 6.57939652 -12.49812678 6.32101166 -9.6875 6.0625 C-8.71103516 5.97548828 -7.73457031 5.88847656 -6.72851562 5.79882812 C-5.79072266 5.71181641 -4.85292969 5.62480469 -3.88671875 5.53515625 C-3.02264404 5.456604 -2.15856934 5.37805176 -1.26831055 5.29711914 C1.16086712 5.05212023 1.16086712 5.05212023 4 4 C2.68 2.68 1.36 1.36 0 0 Z " fill="#250907" transform="translate(261,485)"/>
<path d="M0 0 C5.4556837 2.12405077 10.81634671 4.27176143 16 7 C15.34 7.66 14.68 8.32 14 9 C12.66158328 8.68770276 11.32860925 8.35169068 10 8 C8.9790625 8.2784375 8.9790625 8.2784375 7.9375 8.5625 C6.9784375 8.7790625 6.9784375 8.7790625 6 9 C5.01 8.34 4.02 7.68 3 7 C3.66 5.68 4.32 4.36 5 3 C3.35 2.67 1.7 2.34 0 2 C0 1.34 0 0.68 0 0 Z " fill="#EBC180" transform="translate(383,270)"/>
<path d="M0 0 C0 3.93185517 -1.37773199 5.2909214 -3.6875 8.4375 C-4.37199219 9.38496094 -5.05648438 10.33242188 -5.76171875 11.30859375 C-7.9695648 13.9634034 -10.23277231 15.95002222 -13 18 C-12.53068796 13.41207023 -10.95796769 11.53856217 -7.625 8.4375 C-4.78050105 5.76441223 -2.24785324 3.19775251 0 0 Z " fill="#E8C082" transform="translate(378,394)"/>
<path d="M0 0 C1.22444576 3.67333729 0.65749402 4.4316916 -0.87109375 7.88671875 C-1.28037109 8.82451172 -1.68964844 9.76230469 -2.11132812 10.72851562 C-2.7677832 12.19321289 -2.7677832 12.19321289 -3.4375 13.6875 C-4.0881543 15.16959961 -4.0881543 15.16959961 -4.75195312 16.68164062 C-5.82609533 19.12501905 -6.90904518 21.56409304 -8 24 C-9.14820544 20.55538369 -8.81315918 19.74581478 -7.625 16.4375 C-7.34914062 15.65246094 -7.07328125 14.86742187 -6.7890625 14.05859375 C-6 12 -6 12 -5 10 C-4.34 10 -3.68 10 -3 10 C-3.061875 8.72125 -3.12375 7.4425 -3.1875 6.125 C-3.29296875 3.9453125 -3.29296875 3.9453125 -3 2 C-2.01 1.34 -1.02 0.68 0 0 Z " fill="#DE7460" transform="translate(235,171)"/>
<path d="M0 0 C2.475 0.99 2.475 0.99 5 2 C5.33 1.34 5.66 0.68 6 0 C6.103125 0.7425 6.20625 1.485 6.3125 2.25 C7.04253504 5.17014018 8.06789398 6.73187554 10 9 C9.34 9.66 8.68 10.32 8 11 C6.65772182 9.73861805 5.32641323 8.46555441 4 7.1875 C3.2575 6.47980469 2.515 5.77210938 1.75 5.04296875 C0 3 0 3 0 0 Z " fill="#EFC585" transform="translate(255,451)"/>
<path d="M0 0 C1.90032719 5.1731129 2.2793993 9.50514713 2 15 C1.67 15.66 1.34 16.32 1 17 C0.34 16.67 -0.32 16.34 -1 16 C-0.67 15.34 -0.34 14.68 0 14 C0.43023798 10.12785818 0.31669086 8.47503629 -1.875 5.1875 C-3.80505154 2.95999833 -3.80505154 2.95999833 -6 2 C-6 1.34 -6 0.68 -6 0 C-2.25 -1.125 -2.25 -1.125 0 0 Z " fill="#E67660" transform="translate(205,251)"/>
<path d="M0 0 C1.60188585 5.60660048 0.76314234 8.93423905 -2 14 C-2.66 14 -3.32 14 -4 14 C-4 14.99 -4 15.98 -4 17 C-4.66 17 -5.32 17 -6 17 C-4.33846988 11.14340094 -2.52958084 5.5409866 0 0 Z " fill="#DD735C" transform="translate(69,286)"/>
<path d="M0 0 C-2.81965231 2.81965231 -6.11319504 3.26535843 -9.875 4.1875 C-10.59558594 4.37763672 -11.31617188 4.56777344 -12.05859375 4.76367188 C-15.76725872 5.68913063 -18.35404127 6.12653757 -22 5 C-22 4.34 -22 3.68 -22 3 C-20.5459375 3.0928125 -20.5459375 3.0928125 -19.0625 3.1875 C-15.07128011 3.21173818 -11.87058524 2.02268349 -8.15625 0.66796875 C-5.38507878 -0.1904919 -2.87820572 -0.22140044 0 0 Z " fill="#E9C281" transform="translate(378,485)"/>
<path d="M0 0 C0.33 0.66 0.66 1.32 1 2 C-0.38542316 5.62848922 -1.84351662 8.76527494 -4 12 C-4.66 12 -5.32 12 -6 12 C-6.66 14.31 -7.32 16.62 -8 19 C-8.66 18.67 -9.32 18.34 -10 18 C-8.47146065 13.72813475 -6.28490519 10.00673137 -3.875 6.1875 C-3.50246094 5.59001953 -3.12992187 4.99253906 -2.74609375 4.37695312 C-1.8342952 2.91573749 -0.91764024 1.45755415 0 0 Z " fill="#DA725C" transform="translate(87,254)"/>
<path d="M0 0 C6.875 5.75 6.875 5.75 8 8 C6.02 8 4.04 8 2 8 C1.34 9.32 0.68 10.64 0 12 C0 8.04 0 4.08 0 0 Z " fill="#E27A65" transform="translate(371,110)"/>
<path d="M0 0 C2.86130829 0.31792314 4.82885783 0.89823979 7.3125 2.375 C10.02154116 6.58906403 9.4541275 11.12371294 9 16 C8.67 16.99 8.34 17.98 8 19 C6.68 18.67 5.36 18.34 4 18 C4.495 17.505 4.99 17.01 5.5 16.5 C7.70136649 12.83105586 7.27027433 10.25682075 7 6 C6.67 5.01 6.34 4.02 6 3 C2.99152582 1.77479736 2.99152582 1.77479736 0 1 C0 0.67 0 0.34 0 0 Z " fill="#D8705D" transform="translate(150,428)"/>
<path d="M0 0 C3.90857398 0.55935423 6.40455205 1.67433297 9.625 3.9375 C10.38039063 4.46214844 11.13578125 4.98679687 11.9140625 5.52734375 C12.60242188 6.01332031 13.29078125 6.49929688 14 7 C14.99 7.66 15.98 8.32 17 9 C13.0507432 8.44894091 9.65079826 7.61064629 6 6 C6 5.34 6 4.68 6 4 C3.03 3.505 3.03 3.505 0 3 C0 2.01 0 1.02 0 0 Z " fill="#E07460" transform="translate(106,433)"/>
<path d="M0 0 C2 1 4 2 6 3 C10.55547083 3.25785684 13.8780636 2.99851462 18 1 C17 4 17 4 15.375 5.1875 C10.69988891 6.78688011 7.05709343 6.46127713 2.5625 4.5 C1.716875 4.005 0.87125 3.51 0 3 C0 2.01 0 1.02 0 0 Z " fill="#E37763" transform="translate(209,235)"/>
<path d="M0 0 C1.29418602 4.20269281 0.37083084 6.46850486 -1.25 10.5625 C-1.68828125 11.69816406 -2.1265625 12.83382812 -2.578125 14.00390625 C-3.83415439 16.6505396 -4.77576253 18.16173315 -7 20 C-8 18 -8 18 -7.37915039 16.12060547 C-7.03875732 15.37697754 -6.69836426 14.63334961 -6.34765625 13.8671875 C-5.98349609 13.06152344 -5.61933594 12.25585938 -5.24414062 11.42578125 C-4.85419922 10.58402344 -4.46425781 9.74226562 -4.0625 8.875 C-3.48338867 7.60076172 -3.48338867 7.60076172 -2.89257812 6.30078125 C-1.93534092 4.19722296 -0.97091277 2.09727268 0 0 Z " fill="#DE7560" transform="translate(251,188)"/>
<path d="M0 0 C1.11375 0.4640625 1.11375 0.4640625 2.25 0.9375 C4.50692176 1.8094925 6.6450153 2.47667007 9 3 C9 3.66 9 4.32 9 5 C10.32 5.33 11.64 5.66 13 6 C13 6.66 13 7.32 13 8 C14.32 8.33 15.64 8.66 17 9 C16.34 9.66 15.68 10.32 15 11 C13.2458877 9.92333797 11.49687413 8.83836661 9.75 7.75 C8.77546875 7.14671875 7.8009375 6.5434375 6.796875 5.921875 C4.20294755 4.13945558 2.13622381 2.29898372 0 0 Z " fill="#DE7462" transform="translate(103,455)"/>
<path d="M0 0 C2.6015625 -0.29296875 2.6015625 -0.29296875 5.625 -0.1875 C7.12933594 -0.14689453 7.12933594 -0.14689453 8.6640625 -0.10546875 C9.43492187 -0.07066406 10.20578125 -0.03585938 11 0 C11.66 1.32 12.32 2.64 13 4 C12.32453125 3.90460938 11.6490625 3.80921875 10.953125 3.7109375 C10.06109375 3.60007813 9.1690625 3.48921875 8.25 3.375 C7.36828125 3.25898438 6.4865625 3.14296875 5.578125 3.0234375 C2.7216752 2.99746977 1.38389526 3.47637999 -1 5 C-1.66 5.66 -2.32 6.32 -3 7 C-2.38722388 4.03824877 -1.74627478 2.61941217 0 0 Z " fill="#E17760" transform="translate(381,172)"/>
<path d="M0 0 C-4.29 2.97 -8.58 5.94 -13 9 C-13.33 8.01 -13.66 7.02 -14 6 C-13.67 5.34 -13.34 4.68 -13 4 C-12.34 4.33 -11.68 4.66 -11 5 C-11 4.34 -11 3.68 -11 3 C-10.01 2.67 -9.02 2.34 -8 2 C-8.33 1.34 -8.66 0.68 -9 0 C-2.25 -1.125 -2.25 -1.125 0 0 Z " fill="#E47660" transform="translate(274,260)"/>
<path d="M0 0 C0.6875 1.8125 0.6875 1.8125 1 4 C0.0625 5.75 0.0625 5.75 -2 7 C-4.71896511 7.2515578 -7.25811768 7.13484667 -10 7 C-10.33 6.34 -10.66 5.68 -11 5 C-9.1128125 4.5978125 -9.1128125 4.5978125 -7.1875 4.1875 C-4.00551199 3.40467463 -1.99755689 2.74664072 0 0 Z " fill="#ED7565" transform="translate(407,229)"/>
<path d="M0 0 C0 3.69834896 -0.81364222 4.27081428 -3.25 6.9375 C-3.88550781 7.63746094 -4.52101563 8.33742188 -5.17578125 9.05859375 C-7.07727446 11.08223855 -8.99660415 13.07673998 -11 15 C-11.66 14.67 -12.32 14.34 -13 14 C-12.48050781 13.49210937 -11.96101563 12.98421875 -11.42578125 12.4609375 C-7.3775629 8.46509906 -3.55349109 4.44186386 0 0 Z " fill="#1E1105" transform="translate(431,448)"/>
<path d="M0 0 C0.99 0.33 1.98 0.66 3 1 C1.71372289 2.17260611 0.42080217 3.3379283 -0.875 4.5 C-1.59429687 5.1496875 -2.31359375 5.799375 -3.0546875 6.46875 C-5 8 -5 8 -7 8 C-6.875 6.25 -6.875 6.25 -6 4 C-3.125 1.6875 -3.125 1.6875 0 0 Z " fill="#E8C082" transform="translate(412,464)"/>
<path d="M0 0 C0.66 0 1.32 0 2 0 C3.57300962 5.73303505 4.24327778 10.15659442 3 16 C2.67 16 2.34 16 2 16 C1.93941406 15.36191406 1.87882812 14.72382813 1.81640625 14.06640625 C1.73261719 13.24011719 1.64882813 12.41382813 1.5625 11.5625 C1.48128906 10.73878906 1.40007812 9.91507813 1.31640625 9.06640625 C1.21069185 7.01337975 1.21069185 7.01337975 0 6 C-0.04080783 4.00041636 -0.04254356 1.99954746 0 0 Z " fill="#D26D58" transform="translate(427,215)"/>
<path d="M0 0 C2.93200474 2.85276137 5.64315404 5.65079784 8 9 C5.625 9.1875 5.625 9.1875 3 9 C1 6 1 6 1 3 C0.34 3 -0.32 3 -1 3 C-0.67 2.01 -0.34 1.02 0 0 Z " fill="#E67861" transform="translate(234,460)"/>
<path d="M0 0 C0.66 0 1.32 0 2 0 C1.01 5.28 0.02 10.56 -1 16 C-1.66 15.67 -2.32 15.34 -3 15 C-3.36263859 9.1977825 -2.25684543 5.36000789 0 0 Z " fill="#EDC689" transform="translate(298,444)"/>
<path d="M0 0 C3.03947312 2.48154244 3.57545806 4.55627676 4.1875 8.375 C4.34605469 9.31085938 4.50460937 10.24671875 4.66796875 11.2109375 C4.98101323 13.84051116 5.06251264 16.35523459 5 19 C3.32518285 15.912511 2.29597217 12.88620072 1.375 9.5 C1.11460937 8.5615625 0.85421875 7.623125 0.5859375 6.65625 C0 4 0 4 0 0 Z " fill="#210402" transform="translate(425,200)"/>
<path d="M0 0 C3.24271506 0.5590888 4.93057424 1.4132178 7 4 C7 4.66 7 5.32 7 6 C7.66 6 8.32 6 9 6 C9 6.66 9 7.32 9 8 C9.66 8.33 10.32 8.66 11 9 C8 9 8 9 5.95703125 7.28515625 C5.24933594 6.55167969 4.54164063 5.81820312 3.8125 5.0625 C3.09707031 4.33160156 2.38164062 3.60070312 1.64453125 2.84765625 C0 1 0 1 0 0 Z " fill="#DF7361" transform="translate(263,121)"/>
<path d="M0 0 C3.91090062 0.26665231 5.581069 0.59181082 8.4375 3.375 C8.953125 4.24125 9.46875 5.1075 10 6 C9.67 6.99 9.34 7.98 9 9 C6.66475218 6.74259377 4.81294927 4.7194239 3 2 C2.01 1.34 1.02 0.68 0 0 Z " fill="#1F1007" transform="translate(318,406)"/>
<path d="M0 0 C0.91330404 3.03050885 1.06558338 5.47968569 0.75 8.625 C0.68296875 9.40101563 0.6159375 10.17703125 0.546875 10.9765625 C0 13 0 13 -3 15 C-2.44854729 9.76119922 -1.57077907 5.02649303 0 0 Z " fill="#300E0A" transform="translate(211,339)"/>
<path d="M0 0 C0.99 0.33 1.98 0.66 3 1 C0.36 3.64 -2.28 6.28 -5 9 C-5.33 8.01 -5.66 7.02 -6 6 C-4.71034824 4.62437146 -3.37310707 3.29233607 -2 2 C-1.34 2 -0.68 2 0 2 C0 1.34 0 0.68 0 0 Z " fill="#F7CB8D" transform="translate(321,329)"/>
<path d="M0 0 C0.70125 0.639375 1.4025 1.27875 2.125 1.9375 C5.22841233 4.16386102 7.24620139 4.65080943 11 5 C11 5.33 11 5.66 11 6 C7.37 6 3.74 6 0 6 C-1 2 -1 2 0 0 Z " fill="#EFC989" transform="translate(298,462)"/>
<path d="M0 0 C0 0.66 0 1.32 0 2 C-1.76586761 2.5576424 -3.53795256 3.09562787 -5.3125 3.625 C-6.29863281 3.92664063 -7.28476562 4.22828125 -8.30078125 4.5390625 C-11 5 -11 5 -14 3 C-12.0424015 2.49713066 -10.08389623 1.9977901 -8.125 1.5 C-7.03445313 1.2215625 -5.94390625 0.943125 -4.8203125 0.65625 C-2 0 -2 0 0 0 Z " fill="#D8B47C" transform="translate(350,456)"/>
<path d="M0 0 C0.33 1.32 0.66 2.64 1 4 C-1.70879335 5.35439668 -4.00933268 5.06501451 -7 5 C-4.53846154 1.18461538 -4.53846154 1.18461538 -1.8125 0.25 C-1.214375 0.1675 -0.61625 0.085 0 0 Z " fill="#E5C083" transform="translate(328,356)"/>
<path d="M0 0 C0.99 0.33 1.98 0.66 3 1 C0.36 3.64 -2.28 6.28 -5 9 C-5.33 7.68 -5.66 6.36 -6 5 C-4.68 4.67 -3.36 4.34 -2 4 C-2 3.34 -2 2.68 -2 2 C-1.34 2 -0.68 2 0 2 C0 1.34 0 0.68 0 0 Z " fill="#E6C187" transform="translate(305,345)"/>
<path d="M0 0 C0.66 0.33 1.32 0.66 2 1 C-0.99481865 5.22797927 -0.99481865 5.22797927 -3 7 C-6.3125 7.375 -6.3125 7.375 -9 7 C-6.25604436 4.05278838 -3.61662784 1.80831392 0 0 Z " fill="#2A0B07" transform="translate(274,259)"/>
<path d="M0 0 C0.99 0.33 1.98 0.66 3 1 C0.69 3.97 -1.62 6.94 -4 10 C-4.33 9.01 -4.66 8.02 -5 7 C-2 2 -2 2 0 0 Z " fill="#270805" transform="translate(175,219)"/>
<path d="M0 0 C0.99 0.495 0.99 0.495 2 1 C2.6328125 3.72265625 2.6328125 3.72265625 3.125 7.0625 C3.29257812 8.16722656 3.46015625 9.27195313 3.6328125 10.41015625 C3.75398438 11.26480469 3.87515625 12.11945313 4 13 C0.06190389 9.23312546 0.06190389 9.23312546 -0.09765625 6.0546875 C-0.06510417 4.03645833 -0.03255208 2.01822917 0 0 Z " fill="#230603" transform="translate(389,219)"/>
<path d="M0 0 C1.14926266 0.95421808 2.29430541 1.91352045 3.4375 2.875 C4.07558594 3.40867187 4.71367187 3.94234375 5.37109375 4.4921875 C7 6 7 6 8 8 C6.35 8 4.7 8 3 8 C0 2.25 0 2.25 0 0 Z " fill="#E97864" transform="translate(279,93)"/>
<path d="M0 0 C2.97 1.65 5.94 3.3 9 5 C5 7 5 7 2 7 C2.33 6.01 2.66 5.02 3 4 C2.01 3.34 1.02 2.68 0 2 C0 1.34 0 0.68 0 0 Z " fill="#EFC485" transform="translate(399,278)"/>
<path d="M0 0 C0.99 1.98 1.98 3.96 3 6 C0.03 5.01 -2.94 4.02 -6 3 C-2.25 0 -2.25 0 0 0 Z " fill="#E4735C" transform="translate(397,249)"/>
<path d="M0 0 C5.23175837 -0.38281159 8.37802694 0.78145293 13 3 C12.67 3.66 12.34 4.32 12 5 C10.56068883 4.54738642 9.12361001 4.08767021 7.6875 3.625 C6.88699219 3.36976563 6.08648437 3.11453125 5.26171875 2.8515625 C3 2 3 2 0 0 Z " fill="#DB715E" transform="translate(134,473)"/>
<path d="M0 0 C4.82142857 5.78571429 4.82142857 5.78571429 6 9 C5.67 9.99 5.34 10.98 5 12 C3.96951963 10.3811004 2.95085322 8.75467511 1.9375 7.125 C1.36902344 6.22007812 0.80054688 5.31515625 0.21484375 4.3828125 C-0.18605469 3.59648437 -0.58695313 2.81015625 -1 2 C-0.67 1.34 -0.34 0.68 0 0 Z " fill="#ECC489" transform="translate(242,432)"/>
<path d="M0 0 C0.66 0 1.32 0 2 0 C4.74375671 2.95481492 5 3.77471908 5 8 C4.01 8.66 3.02 9.32 2 10 C1.34 6.7 0.68 3.4 0 0 Z " fill="#E6C687" transform="translate(326,409)"/>
<path d="M0 0 C0.66 0 1.32 0 2 0 C1.6875 1.9375 1.6875 1.9375 1 4 C0.01 4.33 -0.98 4.66 -2 5 C-3.20882096 7.00016466 -3.20882096 7.00016466 -4 9 C-4.99 9 -5.98 9 -7 9 C-5.88266271 7.49428343 -4.75589965 5.99555708 -3.625 4.5 C-2.99851563 3.6646875 -2.37203125 2.829375 -1.7265625 1.96875 C-1.15679687 1.3190625 -0.58703125 0.669375 0 0 Z " fill="#DB7462" transform="translate(175,222)"/>
<path d="M0 0 C0.66 1.32 1.32 2.64 2 4 C0.35 6.31 -1.3 8.62 -3 11 C-3.33 10.34 -3.66 9.68 -4 9 C-3.22265625 6.8359375 -3.22265625 6.8359375 -2.0625 4.375 C-1.68222656 3.55773437 -1.30195313 2.74046875 -0.91015625 1.8984375 C-0.60980469 1.27195313 -0.30945313 0.64546875 0 0 Z " fill="#E0775F" transform="translate(211,156)"/>
<path d="M0 0 C1.32 0 2.64 0 4 0 C4.33 1.65 4.66 3.3 5 5 C4.01 4.34 3.02 3.68 2 3 C1.67 5.64 1.34 8.28 1 11 C0.67 11 0.34 11 0 11 C0 7.37 0 3.74 0 0 Z " fill="#330B08" transform="translate(370,108)"/>
<path d="M0 0 C2.64 0.66 5.28 1.32 8 2 C8 2.33 8 2.66 8 3 C4.04 3.66 0.08 4.32 -4 5 C-2.68 3.35 -1.36 1.7 0 0 Z " fill="#EDC890" transform="translate(343,433)"/>
<path d="M0 0 C0 4.38968456 -2.12805101 5.76905739 -5 9 C-5.99 8.67 -6.98 8.34 -8 8 C-5.36 5.36 -2.72 2.72 0 0 Z " fill="#ECC68A" transform="translate(387,385)"/>
<path d="M0 0 C1.32 0.33 2.64 0.66 4 1 C2.625 3 2.625 3 1 5 C0.34 5 -0.32 5 -1 5 C-1 5.66 -1 6.32 -1 7 C-1.99 6.67 -2.98 6.34 -4 6 C-2.68 4.02 -1.36 2.04 0 0 Z " fill="#F5C884" transform="translate(366,316)"/>
<path d="M0 0 C-1.39332574 3.36720387 -2.9789286 4.9859524 -6 7 C-5.625 4.0625 -5.625 4.0625 -5 1 C-3 0 -3 0 0 0 Z " fill="#DC725A" transform="translate(249,277)"/>
<path d="M0 0 C-0.66 0.66 -1.32 1.32 -2 2 C-2.99 2 -3.98 2 -5 2 C-5.33 2.99 -5.66 3.98 -6 5 C-6.99 4.67 -7.98 4.34 -9 4 C-9 3.34 -9 2.68 -9 2 C-3.375 -1.125 -3.375 -1.125 0 0 Z " fill="#E9C484" transform="translate(296,273)"/>
<path d="M0 0 C0.33 0 0.66 0 1 0 C2.05699482 5.28497409 2.05699482 5.28497409 2 8 C0.0625 10.5 0.0625 10.5 -2 12 C-1 3.42857143 -1 3.42857143 0 0 Z " fill="#D26D57" transform="translate(117,187)"/>
<path d="M0 0 C0.33 0 0.66 0 1 0 C1.32613618 4.67461851 0.70582788 7.16674383 -2 11 C-2.99 10.67 -3.98 10.34 -5 10 C-4.67 9.34 -4.34 8.68 -4 8 C-3.34 8 -2.68 8 -2 8 C-2 7.01 -2 6.02 -2 5 C-1.34 5 -0.68 5 0 5 C0 3.35 0 1.7 0 0 Z " fill="#2A0A06" transform="translate(297,164)"/>
<path d="M0 0 C-3.08888522 2.05925681 -3.70935927 2.2390374 -7.1875 2.125 C-9.0746875 2.063125 -9.0746875 2.063125 -11 2 C-10.67 1.34 -10.34 0.68 -10 0 C-6.35526801 -0.89093449 -3.57257469 -1.23666047 0 0 Z " fill="#27190C" transform="translate(349,437)"/>
<path d="M0 0 C0.556875 0.28875 1.11375 0.5775 1.6875 0.875 C4.08494645 2.0413253 6.51596939 3.0339881 9 4 C9 4.99 9 5.98 9 7 C4.58110387 5.64978174 2.65654657 3.73884332 0 0 Z " fill="#DD7560" transform="translate(117,413)"/>
<path d="M0 0 C1.37562854 1.28965176 2.70766393 2.62689293 4 4 C4 4.66 4 5.32 4 6 C2.68 6.33 1.36 6.66 0 7 C0 4.69 0 2.38 0 0 Z " fill="#E1725C" transform="translate(225,447)"/>
<path d="M0 0 C0.33 0.66 0.66 1.32 1 2 C1.66 2.33 2.32 2.66 3 3 C1.03533587 4.06775224 -0.96855359 5.06553465 -3 6 C-3.66 5.67 -4.32 5.34 -5 5 C-3.35 3.35 -1.7 1.7 0 0 Z " fill="#E8BE80" transform="translate(360,414)"/>
<path d="M0 0 C1.32 0.99 2.64 1.98 4 3 C2.68 3.99 1.36 4.98 0 6 C-0.66 4.68 -1.32 3.36 -2 2 C-1.34 1.34 -0.68 0.68 0 0 Z " fill="#DFB674" transform="translate(325,323)"/>
<path d="M0 0 C1 2 1 2 0.0625 5.125 C-0.288125 6.07375 -0.63875 7.0225 -1 8 C-1.66 8 -2.32 8 -3 8 C-3 7.34 -3 6.68 -3 6 C-3.66 5.67 -4.32 5.34 -5 5 C-3.35 3.35 -1.7 1.7 0 0 Z " fill="#EDC385" transform="translate(261,294)"/>
<path d="M0 0 C0.66 0.33 1.32 0.66 2 1 C-0.475 5.455 -0.475 5.455 -3 10 C-4 6 -4 6 -2.0625 2.75 C-1.381875 1.8425 -0.70125 0.935 0 0 Z " fill="#270704" transform="translate(79,264)"/>
<path d="M0 0 C1.60031344 3.20062687 0.03173691 5.72271806 -1 9 C-1.99 8.67 -2.98 8.34 -4 8 C-2.87548273 5.0280615 -1.77706209 2.66559313 0 0 Z " fill="#E1735B" transform="translate(231,228)"/>
<path d="M0 0 C0.66 0 1.32 0 2 0 C2.36629408 4.27343092 1.40814077 6.48812804 -1 10 C-2.27351308 7.45297384 -1.80191925 6.5717055 -1.0625 3.875 C-0.86785156 3.15054688 -0.67320312 2.42609375 -0.47265625 1.6796875 C-0.31667969 1.12539062 -0.16070312 0.57109375 0 0 Z " fill="#D6725F" transform="translate(215,140)"/>
<path d="M0 0 C0.99 0 1.98 0 3 0 C3 0.66 3 1.32 3 2 C3.66 2 4.32 2 5 2 C5.33 3.65 5.66 5.3 6 7 C5.01 7.495 5.01 7.495 4 8 C2.68 5.36 1.36 2.72 0 0 Z " fill="#230704" transform="translate(318,138)"/>
<path d="M0 0 C1.16945792 0.80847729 2.33550461 1.62189112 3.5 2.4375 C4.47453125 3.11619141 4.47453125 3.11619141 5.46875 3.80859375 C5.9740625 4.20175781 6.479375 4.59492188 7 5 C7 5.33 7 5.66 7 6 C4.625 6.1875 4.625 6.1875 2 6 C0 3 0 3 0 0 Z " fill="#E17662" transform="translate(249,476)"/>
<path d="M0 0 C5.445 1.485 5.445 1.485 11 3 C11 3.33 11 3.66 11 4 C7.75 4.25 7.75 4.25 4 4 C2.68 2.68 1.36 1.36 0 0 Z " fill="#341E0E" transform="translate(299,463)"/>
<path d="M0 0 C2.4375 0.625 2.4375 0.625 5 2 C5.8125 5.125 5.8125 5.125 6 8 C1.125 3.375 1.125 3.375 0 0 Z " fill="#D86F5E" transform="translate(75,426)"/>
<path d="M0 0 C4.42857143 5.14285714 4.42857143 5.14285714 5 9 C3.0625 8.4375 3.0625 8.4375 1 7 C0.25 3.375 0.25 3.375 0 0 Z " fill="#2D0906" transform="translate(68,415)"/>
<path d="M0 0 C1.32 0.33 2.64 0.66 4 1 C2.35 2.98 0.7 4.96 -1 7 C-1.33 5.68 -1.66 4.36 -2 3 C-1.34 3 -0.68 3 0 3 C0 2.01 0 1.02 0 0 Z " fill="#DD7659" transform="translate(233,291)"/>
<path d="M0 0 C0 0.33 0 0.66 0 1 C-2.64 1 -5.28 1 -8 1 C-8 0.34 -8 -0.32 -8 -1 C-4.37673261 -2.2077558 -3.35853631 -1.54311128 0 0 Z " fill="#F6CC8D" transform="translate(376,286)"/>
<path d="M0 0 C1.65 0 3.3 0 5 0 C5 0.66 5 1.32 5 2 C6.98 2 8.96 2 11 2 C11 2.33 11 2.66 11 3 C3.49230769 3.36923077 3.49230769 3.36923077 1 1.5 C0.67 1.005 0.34 0.51 0 0 Z " fill="#3E1310" transform="translate(189,269)"/>
<path d="M0 0 C0.99 0 1.98 0 3 0 C1.8141763 3.37503669 0.72426311 5.64722731 -2 8 C-2 6.68 -2 5.36 -2 4 C-1.34 4 -0.68 4 0 4 C0 2.68 0 1.36 0 0 Z " fill="#1B0403" transform="translate(85,252)"/>
<path d="M0 0 C1.25541557 3.76624671 0.37061958 5.37188934 -1 9 C-1.66 9 -2.32 9 -3 9 C-2.01 6.03 -1.02 3.06 0 0 Z " fill="#D06D5B" transform="translate(257,173)"/>
<path d="M0 0 C1.98 0.66 3.96 1.32 6 2 C6.33 3.65 6.66 5.3 7 7 C5.83040013 6.02433888 4.66438823 5.044375 3.5 4.0625 C2.8503125 3.51722656 2.200625 2.97195312 1.53125 2.41015625 C1.0259375 1.94480469 0.520625 1.47945313 0 1 C0 0.67 0 0.34 0 0 Z " fill="#2A0A05" transform="translate(277,90)"/>
</svg>
